<svg xmlns="http://www.w3.org/2000/svg" viewBox="0 0 512 512">
  <rect width="512" height="512" rx="96" fill="#1A2E5C"/>
  <!-- 地球儀 -->
  <circle cx="240" cy="270" r="140" fill="none" stroke="#FFFFFF" stroke-width="5" opacity="0.5"/>
  <ellipse cx="240" cy="270" rx="55" ry="140" fill="none" stroke="#FFFFFF" stroke-width="3.5" opacity="0.4"/>
  <ellipse cx="240" cy="270" rx="110" ry="140" fill="none" stroke="#FFFFFF" stroke-width="3.5" opacity="0.4"/>
  <ellipse cx="240" cy="270" rx="140" ry="48" fill="none" stroke="#FFFFFF" stroke-width="3.5" opacity="0.4"/>
  <ellipse cx="240" cy="270" rx="140" ry="95" fill="none" stroke="#FFFFFF" stroke-width="3.5" opacity="0.4"/>
  <!-- 軌道スウッシュ -->
  <path d="M 90 340 Q 240 400 400 290" fill="none" stroke="#FFFFFF" stroke-width="14" stroke-linecap="round"/>
  <!-- フォーク -->
  <g transform="translate(295 145) rotate(25)">
    <rect x="-6" y="10" width="12" height="160" rx="3" fill="#FFFFFF"/>
    <rect x="-20" y="-45" width="7" height="60" rx="2" fill="#FFFFFF"/>
    <rect x="-3.5" y="-52" width="7" height="68" rx="2" fill="#FFFFFF"/>
    <rect x="13" y="-45" width="7" height="60" rx="2" fill="#FFFFFF"/>
    <rect x="-20" y="12" width="40" height="9" rx="2" fill="#FFFFFF"/>
  </g>
  <!-- 飛行機 -->
  <g transform="translate(370 130) rotate(35)">
    <ellipse cx="0" cy="0" rx="35" ry="9" fill="#FFFFFF"/>
    <path d="M -8 -2 L -22 -22 L 6 -8 Z" fill="#FFFFFF"/>
    <path d="M -8 2 L -22 22 L 6 8 Z" fill="#FFFFFF"/>
    <path d="M -28 -2 L -36 -10 L -24 -4 Z" fill="#FFFFFF"/>
    <path d="M -28 2 L -36 10 L -24 4 Z" fill="#FFFFFF"/>
    <ellipse cx="32" cy="0" rx="6" ry="6" fill="#FFFFFF"/>
  </g>
</svg>